PathFileType	4	(X/Y/Z)	PS_ngait_og_ss1.trc	
DataRate	CameraRate	NumFrames	NumMarkers	Units	OrigDataRate	OrigDataStartFrame	OrigNumFrames	
120.00	120.00	11	36	mm	120.00	717	132	
Frame#	Time	Sternum			Neck			RShoulder			LShoulder			Xiphoid			Thoracic			RAsis			LAsis			RPsis			LPsis			LThighSuperior			LThighInferior			LThighLateral			LShankSuperior			LShankInferior			LShankLateral			RThighSuperior			RThighInferior			RThighLateral			RShankSuperior			RShankInferior			RShankLateral			RHeel			RToe			RMidfootLateral			RHindfoot			LHeel			LToe			LMidfootMedial			LMidfootLateral			LHindfoot			LMidfootSuperior			LToeMedial			LToeLateral			Sacral			RMidfootSuperior			
		X1	Y1	Z1	X2	Y2	Z2	X3	Y3	Z3	X4	Y4	Z4	X5	Y5	Z5	X6	Y6	Z6	X7	Y7	Z7	X8	Y8	Z8	X9	Y9	Z9	X10	Y10	Z10	X11	Y11	Z11	X12	Y12	Z12	X13	Y13	Z13	X14	Y14	Z14	X15	Y15	Z15	X16	Y16	Z16	X17	Y17	Z17	X18	Y18	Z18	X19	Y19	Z19	X20	Y20	Z20	X21	Y21	Z21	X22	Y22	Z22	X23	Y23	Z23	X24	Y24	Z24	X25	Y25	Z25	X26	Y26	Z26	X27	Y27	Z27	X28	Y28	Z28	X29	Y29	Z29	X30	Y30	Z30	X31	Y31	Z31	X32	Y32	Z32	X33	Y33	Z33	X34	Y34	Z34	X35	Y35	Z35	X36	Y36	Z36	

100	0.825	1009.34167	1446.33765	194.11833	846.53778	1544.89490	205.28769	896.35760	1528.38806	362.99899	873.72247	1538.04260	64.29063	1044.01062	1287.09912	196.10861	766.62640	1326.52649	208.98477	968.13007	1028.07568	337.01501	967.66821	1013.77258	63.53848	777.04529	1044.31079	257.92728	771.53101	1035.01086	154.90105	937.96332	842.03564	12.27684	1021.17743	623.13269	26.36943	1070.58569	742.69482	73.87171	951.14008	427.42053	26.23872	806.08783	295.96506	64.47352	905.96539	337.81052	95.74377	920.53851	823.80420	379.80527	943.72540	587.53528	341.89490	1019.38000	748.03131	306.68848	922.21033	428.08118	343.18307	898.51007	176.97273	295.59180	960.05133	301.32190	257.99908	799.52240	67.96056	240.45259	1117.00525	45.00311	240.00925	1017.45813	29.57459	311.60684	962.75201	31.23860	303.59955	658.26526	254.96039	125.99501	900.00378	62.19323	67.72442	813.07532	98.41485	137.02985	795.83984	102.34602	22.72609	755.82910	131.43295	39.44957	828.94330	164.70750	87.82314	847.62494	74.33287	125.64667	837.29059	84.44516	22.63995	774.28815	1039.66089	206.41417			 
101	0.833	1017.74713	1447.16187	194.65610	855.15717	1545.75952	205.79802	905.02478	1529.46191	363.42831	882.10144	1538.66150	64.74773	1052.37695	1287.91357	196.61038	774.95319	1327.32422	210.03250	976.45148	1028.68054	337.67410	975.85632	1015.40973	64.09192	785.31873	1045.12170	258.73947	779.68610	1035.94812	155.54826	947.66406	843.56830	12.24502	1034.23853	626.39764	26.19859	1081.69739	746.45270	73.71220	968.67865	428.71793	26.37954	828.05518	291.97995	64.81481	925.85339	336.75214	95.76445	926.98181	823.96808	380.22250	947.16943	587.54187	342.17029	1024.73291	747.48230	306.62784	923.89777	428.19431	343.21613	898.90503	177.15994	295.60550	961.35291	301.23306	258.37482	799.24066	68.62178	240.94896	1117.10645	44.94380	240.03587	1017.46832	29.56750	311.64120	962.86096	31.30118	303.59723	681.45648	245.45711	126.08578	930.76349	62.45349	69.43462	841.31421	95.40183	137.98672	824.65137	98.59628	23.28852	783.26154	127.32499	39.63866	854.63873	162.34280	88.60207	877.30347	72.57753	126.75331	867.70166	82.06433	23.61629	782.50238	1040.53491	207.14386			 
102	0.842	1026.26416	1447.91956	195.23425	863.78857	1546.57813	206.40826	913.69373	1530.43567	363.88062	890.60895	1539.28833	65.17851	1060.74231	1288.55505	197.26285	783.34161	1328.31921	210.95827	984.46796	1029.33252	338.27328	983.96674	1016.50024	64.71888	793.37274	1045.89417	259.27573	787.78748	1037.04468	156.15068	958.03479	844.63611	13.17034	1047.02222	629.67719	26.02697	1092.72766	750.30402	73.89626	986.13214	429.71301	26.39146	850.45703	287.62268	65.16747	947.68304	336.77029	97.06577	933.16364	824.06494	380.53381	950.35187	587.48138	342.33969	1030.00635	746.97778	306.61484	925.70166	428.32574	343.26486	899.36243	177.34221	295.66089	962.83734	301.37717	258.64072	799.31604	68.94435	241.12811	1117.20178	44.84445	240.12035	1017.58374	29.54937	311.73337	963.28174	31.23786	303.63211	705.18781	234.77448	126.07442	961.62000	62.61069	70.78257	871.15100	91.88315	138.26146	854.35846	94.55371	24.11012	811.59332	121.90526	40.15618	881.38879	159.44435	89.32904	907.44403	70.68334	127.75364	898.12695	79.68797	24.54730	790.58008	1041.46948	207.71320			 
103	0.850	1034.88892	1448.50745	195.78355	872.43390	1547.33826	206.95735	922.36249	1531.36963	364.38962	899.08514	1539.63000	65.77724	1069.21887	1289.34143	198.07487	791.62433	1329.07678	211.88734	992.36615	1029.93445	338.91821	992.00256	1017.58435	65.28559	801.32397	1046.61267	259.81668	795.80743	1037.99182	156.71294	967.34375	846.02240	13.41308	1059.41760	632.56934	26.27274	1103.48242	753.92078	74.16335	1003.50128	430.39160	26.27850	873.03510	282.94989	65.63055	971.72632	337.71725	99.13446	939.22186	824.23059	380.85831	953.41058	587.48975	342.52231	1035.60364	746.89966	307.04077	927.45404	428.45081	343.32202	899.89093	177.51343	295.68317	964.06952	301.34357	258.72644	800.18274	68.71330	241.15317	1117.36755	44.77480	240.28209	1017.51794	29.53762	311.75198	963.68091	31.21993	303.59607	728.58264	224.48383	125.66675	992.44769	62.82640	71.75730	901.35510	88.53732	138.87064	884.31812	90.67279	24.56403	840.38416	115.93249	40.45381	908.49152	156.40273	89.94006	937.97784	68.84204	128.70242	928.38312	77.52900	25.49429	798.56567	1042.30225	208.26480			 
104	0.858	1043.44995	1449.00806	196.37312	881.11328	1547.94812	207.46748	931.16138	1532.02637	364.94098	907.68213	1540.01221	66.21497	1077.74316	1289.91370	198.87296	799.91223	1329.82593	212.68524	1000.24695	1030.01929	339.40805	1000.08868	1018.70233	65.88022	809.27472	1047.10974	260.22519	803.86121	1038.77222	157.31578	976.38763	847.58441	13.73731	1071.45776	635.29657	26.38134	1114.01294	757.26666	74.44263	1020.78448	430.74435	26.05238	895.86676	278.19470	65.62578	993.27051	337.33783	99.94512	945.22809	824.43738	381.23709	956.41748	587.53912	342.75922	1040.73950	746.79901	307.59174	929.37500	428.63882	343.28262	900.42621	177.74120	295.70706	965.27667	301.12439	258.71622	799.73492	69.18259	241.00677	1117.42651	44.61120	240.30450	1017.56189	29.50188	311.74637	962.86475	31.18278	303.59665	752.99438	212.83958	125.31712	1023.83710	62.91608	72.87381	931.89136	85.13261	139.42221	914.68872	86.25373	25.24051	869.84821	109.87061	41.21791	936.30060	153.20569	90.56630	969.00555	66.95591	129.64604	959.36847	74.86393	26.37925	806.56793	1042.94104	208.77048			 
105	0.867	1052.09717	1449.37866	197.02272	889.80017	1548.54749	207.81609	939.77374	1532.75891	365.18417	916.40674	1540.34375	66.62173	1086.23401	1290.29822	199.67436	808.35297	1330.42896	213.45799	1007.96973	1030.25793	339.92316	1008.14282	1019.36194	66.45110	817.12769	1047.67102	260.49820	811.82990	1039.59839	157.66295	985.45233	848.76770	13.98458	1083.06030	637.77307	26.69516	1124.06494	760.09760	74.59236	1037.97693	430.76706	25.73341	919.03253	273.20251	66.03977	1013.42963	335.75311	100.24030	951.22479	824.69037	381.50449	959.41467	587.63470	342.88470	1045.57947	745.60120	307.33395	931.18951	428.76358	343.28851	900.97076	177.87776	295.63239	966.36908	301.11124	258.70816	799.63727	69.37659	241.07564	1117.68176	44.56767	240.39603	1017.50702	29.46571	311.75888	962.79230	31.16266	303.57068	778.68781	201.17204	125.31699	1055.50476	63.08051	73.79281	962.14789	81.37693	139.55345	945.71106	81.75906	25.96025	899.70807	103.80360	41.42383	964.21429	149.99757	90.93949	1000.07922	64.79877	130.10406	990.97473	72.24487	26.75464	814.47876	1043.63464	209.08058			 
106	0.875	1060.68347	1449.65784	197.64981	898.59973	1548.93494	208.12935	948.35291	1533.18481	365.48029	925.20685	1540.49463	66.95673	1094.60364	1290.50085	200.41122	816.73566	1330.90698	214.04160	1015.79742	1030.69983	340.45624	1016.19922	1019.81403	66.98264	825.02307	1048.18555	260.88867	819.81934	1040.30713	157.98920	994.37427	849.94403	13.90113	1094.32788	639.87933	26.86197	1134.06677	762.85101	75.01447	1055.06995	430.46143	25.35131	942.47223	267.87299	65.98097	1032.96509	333.23251	99.83975	957.11346	824.93170	381.65213	962.30396	587.71857	342.89047	1050.26318	744.68005	307.14334	932.97620	428.98669	343.29758	901.46295	178.08549	295.57080	967.57648	301.30624	258.80020	799.66022	69.50841	241.06755	1117.59692	44.70502	240.41014	1017.50854	29.49512	311.75919	962.87927	31.28104	303.57312	804.27368	190.33220	124.53486	1086.96497	63.49308	74.28309	993.04492	78.09663	140.11008	976.65393	77.58354	26.18711	929.87695	97.92194	41.70980	992.57135	146.62761	91.33026	1031.58081	63.05843	130.65961	1022.06165	69.95187	27.30920	822.42120	1044.24634	209.43893			 
107	0.883	1069.34570	1449.71936	198.11752	907.34265	1549.23816	208.37579	956.98230	1533.49048	365.80664	934.02509	1540.58252	67.29750	1102.93713	1290.51013	201.21628	825.16650	1331.29224	214.55553	1023.48071	1030.73193	340.97043	1024.24878	1020.28485	67.51913	832.82788	1048.42505	261.16306	827.76721	1040.97095	158.25533	1002.71564	850.78040	14.86070	1105.28394	641.56281	27.40243	1143.71472	765.03113	75.38576	1072.05005	429.83548	24.94606	966.02081	262.51624	66.01624	1052.93347	330.28229	98.81002	962.99573	825.09521	381.83331	965.18677	587.72491	342.92978	1055.04724	743.68628	306.94565	934.65894	429.18292	343.22446	901.90698	178.28938	295.54953	968.40479	300.64233	258.54285	800.00391	69.57011	241.24072	1117.69495	44.85998	240.74538	1017.50171	29.46870	311.76086	962.90308	31.30525	303.58469	830.45624	179.87901	124.42478	1118.98218	63.90162	74.83364	1024.04553	74.87978	140.14349	1008.10907	73.24046	26.46494	960.58038	91.85617	42.16212	1021.05029	143.22293	91.43365	1063.33813	61.40310	130.89967	1054.13989	67.46120	27.46790	830.29755	1044.69800	209.70918			 
108	0.892	1077.94238	1449.65076	198.65987	916.11926	1549.39624	208.61401	965.62378	1533.74817	366.14120	942.84070	1540.58142	67.56026	1111.30408	1290.38196	201.88847	833.50659	1331.50464	214.98256	1031.04211	1030.29468	341.39209	1032.20618	1020.62878	67.99810	840.54083	1048.60339	261.36310	835.64294	1041.45215	158.52655	1012.59729	852.94464	13.46270	1115.76563	643.09564	27.74919	1153.01758	766.89368	75.79929	1088.95093	428.89072	24.58249	989.78998	257.05771	65.84678	1073.39917	326.98709	97.66587	968.92877	825.31750	382.01883	968.12030	587.78979	342.97336	1059.85999	742.75916	306.95471	936.39075	429.47403	343.11090	902.43976	178.54724	295.56046	969.77466	300.60358	258.91971	800.05554	69.66174	241.29929	1117.73401	44.87577	240.68335	1017.54718	29.52338	311.79837	962.90259	31.31071	303.61658	858.02588	168.71425	124.01031	1150.70935	64.56290	75.07938	1055.88696	72.13995	140.67656	1039.59888	69.43143	26.74098	991.52362	85.94535	42.23045	1049.77039	139.89023	91.44834	1095.45715	60.15488	131.41469	1085.56384	65.45221	28.00530	838.09192	1045.02771	209.94482			 
109	0.900	1086.49048	1449.32373	199.03349	924.95502	1549.43445	208.87675	974.29852	1533.76953	366.51822	951.69519	1540.42737	67.90808	1119.68774	1289.95642	202.55472	841.78888	1331.72400	215.31534	1038.49280	1029.98450	341.88113	1039.99719	1020.50006	68.38520	848.15973	1048.81104	261.57211	843.39807	1041.86621	158.70676	1021.07770	853.73059	13.39413	1125.78674	644.14343	28.29553	1162.89514	768.54224	75.30485	1105.46887	427.71301	24.30751	1013.64160	251.69482	65.78857	1094.37097	324.80377	97.57643	974.92365	825.46509	382.20993	971.11578	587.77991	343.02258	1064.67542	741.80695	307.20227	938.17841	429.63120	343.05255	903.01721	178.89198	295.59756	971.12018	300.94125	259.21231	800.06067	69.81944	241.29272	1117.78528	44.80331	240.69690	1017.51025	29.47791	311.76901	962.89362	31.31209	303.61975	886.07495	157.58945	123.78392	1182.13684	65.07127	74.80183	1087.72119	69.50259	140.77896	1071.17615	65.51289	26.56235	1022.46783	80.57162	41.97086	1078.69568	136.65237	91.18684	1127.42249	58.94747	131.50052	1116.72375	63.27702	28.12628	845.77893	1045.33862	210.13943			 
110	0.908	1095.18506	1448.88159	199.46750	933.73260	1549.28821	209.01364	982.85364	1533.66711	366.75101	960.75854	1540.28552	67.98270	1128.07092	1289.49365	203.24019	850.14398	1331.80151	215.50534	1045.85803	1029.46667	342.29077	1047.81042	1020.15234	68.70184	855.72614	1048.94055	261.66068	851.14514	1042.12720	158.73232	1029.11743	853.71082	13.24734	1135.29871	644.91846	28.44944	1169.77014	767.99121	75.75983	1122.10254	426.24213	24.05119	1037.81519	246.13943	65.54649	1115.36145	322.87936	97.40430	980.99792	825.61700	382.43668	974.19073	587.77460	343.10745	1069.44580	740.79187	307.69739	940.05188	429.98441	342.99985	903.57928	179.18042	295.58463	973.29492	301.82535	260.00403	800.08514	69.90604	241.29965	1117.76208	44.76760	240.67615	1017.52209	29.41568	311.80499	962.89203	31.31081	303.61804	914.58038	146.85374	123.59177	1214.34619	66.70288	74.60691	1119.77820	67.39713	140.69847	1103.45313	61.76601	26.84509	1053.66992	75.30714	41.84244	1107.76624	133.64162	90.79335	1159.99792	58.57016	131.40504	1149.05298	61.58377	28.00985	853.43561	1045.53381	210.19650			 
